<?xml version="1.0" encoding="UTF-8" standalone="no"?>
<!-- Created with Inkscape (http://www.inkscape.org/) -->

<svg
   width="127.57176mm"
   height="127.82762mm"
   viewBox="0 0 127.57176 127.82762"
   version="1.1"
   id="svg5"
   xmlns="http://www.w3.org/2000/svg"
   xmlns:svg="http://www.w3.org/2000/svg">
  <defs
     id="defs2" />
  <g
     id="layer1"
     transform="translate(-39.36814,-64.967847)">
    <path
       id="path1518"
       style="opacity:0.99;fill:#0000ff;stroke-width:0.808177;-inkscape-stroke:none;stop-color:#000000"
       d="m 55.266797,73.557784 a 15.898601,20.874104 0 0 0 -15.898657,20.874178 15.898601,20.874104 0 0 0 15.898657,20.874178 15.898601,20.874104 0 0 0 0.903682,-0.0444 c 0.0889,0.0279 0.181499,0.0444 0.277087,0.0444 h 21.087348 l -32.517977,40.67607 a 15.898601,20.874104 0 0 0 -5.648797,15.93908 15.898601,20.874104 0 0 0 15.898657,20.87418 15.898601,20.874104 0 0 0 0.903682,-0.0444 c 0.0889,0.0279 0.181499,0.0444 0.277087,0.0444 H 111.4399 c 0.0955,0 0.18783,-0.0166 0.2767,-0.0444 a 15.898601,20.874104 0 0 0 0.90406,0.0444 15.898601,20.874104 0 0 0 15.89866,-20.87418 15.898601,20.874104 0 0 0 -15.89866,-20.87418 15.898601,20.874104 0 0 0 -0.90406,0.0444 c -0.0889,-0.0279 -0.18116,-0.0444 -0.2767,-0.0444 H 91.440824 l 33.362226,-43.03045 -0.0716,-0.0832 a 15.898601,20.874104 0 0 0 3.7879,-13.501498 15.898601,20.874104 0 0 0 -15.89866,-20.874178 15.898601,20.874104 0 0 0 -0.90406,0.04444 c -0.0889,-0.02787 -0.18116,-0.04444 -0.2767,-0.04444 H 56.447566 c -0.08763,0 -0.172957,0.01365 -0.255047,0.03721 a 15.898601,20.874104 0 0 0 -0.925722,-0.03721 z" />
    <path
       id="path2594"
       style="opacity:0.99;fill:#0000ff;stroke-width:0.278305;-inkscape-stroke:none;stop-color:#000000"
       d="m 136.94827,92.487306 a 5.4748641,7.1882352 0 0 0 -5.47488,7.188261 5.4748641,7.1882352 0 0 0 5.47488,7.188263 5.4748641,7.1882352 0 0 0 0.3112,-0.0153 c 0.0306,0.01 0.0625,0.0153 0.0954,0.0153 h 7.26167 l -11.19792,14.00726 a 5.4748641,7.1882352 0 0 0 -1.94523,5.48881 5.4748641,7.1882352 0 0 0 5.47488,7.18826 5.4748641,7.1882352 0 0 0 0.3112,-0.0153 c 0.0306,0.01 0.0625,0.0153 0.0954,0.0153 h 18.93724 c 0.0329,0 0.0647,-0.006 0.0953,-0.0153 a 5.4748641,7.1882352 0 0 0 0.31132,0.0153 5.4748641,7.1882352 0 0 0 5.47488,-7.18826 5.4748641,7.1882352 0 0 0 -5.47488,-7.18826 5.4748641,7.1882352 0 0 0 -0.31132,0.0153 c -0.0306,-0.01 -0.0624,-0.0153 -0.0953,-0.0153 h -6.88691 l 11.48866,-14.81803 -0.0247,-0.0286 a 5.4748641,7.1882352 0 0 0 1.3044,-4.649392 5.4748641,7.1882352 0 0 0 -5.47488,-7.188261 5.4748641,7.1882352 0 0 0 -0.31132,0.0153 c -0.0306,-0.0096 -0.0624,-0.0153 -0.0953,-0.0153 h -18.93725 c -0.0302,0 -0.0596,0.0047 -0.0878,0.01281 a 5.4748641,7.1882352 0 0 0 -0.31879,-0.01281 z" />
    <path
       id="path2596"
       style="opacity:0.99;fill:#0000ff;stroke-width:0.157692;-inkscape-stroke:none;stop-color:#000000"
       d="m 152.64675,64.967847 a 3.1021372,4.0729581 0 0 0 -3.10215,4.072973 3.1021372,4.0729581 0 0 0 3.10215,4.072974 3.1021372,4.0729581 0 0 0 0.17633,-0.0087 c 0.0173,0.0057 0.0354,0.0087 0.0541,0.0087 h 4.11457 l -6.3449,7.936714 a 3.1021372,4.0729581 0 0 0 -1.1022,3.110039 3.1021372,4.0729581 0 0 0 3.10215,4.072972 3.1021372,4.0729581 0 0 0 0.17633,-0.0087 c 0.0173,0.0057 0.0354,0.0087 0.0541,0.0087 h 10.73012 c 0.0186,0 0.0367,-0.0034 0.054,-0.0087 a 3.1021372,4.0729581 0 0 0 0.1764,0.0087 3.1021372,4.0729581 0 0 0 3.10215,-4.072972 3.1021372,4.0729581 0 0 0 -3.10215,-4.072972 3.1021372,4.0729581 0 0 0 -0.1764,0.0087 c -0.0173,-0.0057 -0.0353,-0.0087 -0.054,-0.0087 h -3.90223 l 6.50964,-8.396108 -0.014,-0.01621 a 3.1021372,4.0729581 0 0 0 0.73909,-2.634412 3.1021372,4.0729581 0 0 0 -3.10215,-4.072973 3.1021372,4.0729581 0 0 0 -0.17639,0.0087 c -0.0173,-0.0054 -0.0354,-0.0087 -0.054,-0.0087 h -10.73012 c -0.0171,0 -0.0338,0.0027 -0.0497,0.0073 a 3.1021372,4.0729581 0 0 0 -0.18063,-0.0073 z" />
  </g>
</svg>
