<?xml version="1.0" encoding="UTF-8" standalone="no"?>
<!-- Created with Inkscape (http://www.inkscape.org/) -->

<svg
   width="127.57176mm"
   height="127.82762mm"
   viewBox="0 0 127.57176 127.82762"
   version="1.1"
   id="svg5"
   sodipodi:docname="logobkgnd.svg"
   inkscape:version="1.2.2 (b0a8486541, 2022-12-01)"
   xmlns:inkscape="http://www.inkscape.org/namespaces/inkscape"
   xmlns:sodipodi="http://sodipodi.sourceforge.net/DTD/sodipodi-0.dtd"
   xmlns="http://www.w3.org/2000/svg"
   xmlns:svg="http://www.w3.org/2000/svg">
  <sodipodi:namedview
     id="namedview8"
     pagecolor="#ffffff"
     bordercolor="#000000"
     borderopacity="0.25"
     inkscape:showpageshadow="2"
     inkscape:pageopacity="0.0"
     inkscape:pagecheckerboard="0"
     inkscape:deskcolor="#d1d1d1"
     inkscape:document-units="mm"
     showgrid="false"
     inkscape:zoom="1.1621809"
     inkscape:cx="240.92635"
     inkscape:cy="259.85627"
     inkscape:window-width="1920"
     inkscape:window-height="1030"
     inkscape:window-x="0"
     inkscape:window-y="26"
     inkscape:window-maximized="1"
     inkscape:current-layer="svg5" />
  <defs
     id="defs2" />
  <rect
     style="opacity:0.99;fill:#7591ff;fill-opacity:1;stroke-width:0.677284;-inkscape-stroke:none;stop-color:#000000"
     id="rect2372"
     width="127.56676"
     height="127.81866"
     x="-0.00056137308"
     y="0.0032864516"
     ry="0" />
  <path
     id="path2428"
     style="opacity:0.99;fill:#ffff00;fill-opacity:1;stroke:none;stroke-width:0.141319;-inkscape-stroke:none;stop-color:#000000"
     d="m 115.96713,106.95553 -6.67949,6.80602 -8.55924,-4.20504 6.80605,6.67968 -4.20488,8.55901 6.67957,-6.80612 8.55904,4.20507 -6.80612,-6.67957 z" />
  <path
     id="path2483"
     style="opacity:0.99;fill:#ffff00;fill-opacity:1;stroke:none;stroke-width:0.141319;-inkscape-stroke:none;stop-color:#000000"
     d="m 112.70076,17.943851 -8.60286,4.114403 -6.607518,-6.876292 4.114368,8.603039 -6.876078,6.607373 8.602968,-4.114476 6.60734,6.876259 -4.11448,-8.602963 z" />
  <path
     id="path2485"
     style="opacity:0.99;fill:#ffff00;fill-opacity:1;stroke:none;stroke-width:0.141319;-inkscape-stroke:none;stop-color:#000000"
     d="m 84.834139,70.218169 -8.270149,4.747851 -7.104499,-6.361513 4.747835,8.270333 -6.361314,7.104333 8.270254,-4.747933 7.104318,6.361494 -4.747942,-8.270249 z" />
  <path
     id="path2487"
     style="opacity:0.99;fill:#ffff00;fill-opacity:1;stroke:none;stroke-width:0.141319;-inkscape-stroke:none;stop-color:#000000"
     d="m 112.37753,76.643545 -3.45669,8.88757 -9.523714,-0.49156 8.887664,3.45684 -0.4915,9.52346 3.45671,-8.88769 9.52357,0.49166 -8.8877,-3.45672 z" />
  <path
     id="path2489"
     style="opacity:0.99;fill:#ffff00;fill-opacity:1;stroke:none;stroke-width:0.141319;-inkscape-stroke:none;stop-color:#000000"
     d="m 86.792887,39.883251 -2.501102,9.202282 -9.522498,0.51454 9.202401,2.501253 0.514565,9.522236 2.50112,-9.202406 9.522359,-0.514428 -9.202417,-2.501118 z" />
</svg>
