<?xml version="1.0" encoding="UTF-8" standalone="no"?>
<!-- Created with Inkscape (http://www.inkscape.org/) -->

<svg
   width="127.57176mm"
   height="127.82762mm"
   viewBox="0 0 127.57176 127.82762"
   version="1.1"
   id="svg5"
   sodipodi:docname="projectlogo.svg"
   inkscape:version="1.2.2 (b0a8486541, 2022-12-01)"
   xmlns:inkscape="http://www.inkscape.org/namespaces/inkscape"
   xmlns:sodipodi="http://sodipodi.sourceforge.net/DTD/sodipodi-0.dtd"
   xmlns="http://www.w3.org/2000/svg"
   xmlns:svg="http://www.w3.org/2000/svg">
  <sodipodi:namedview
     id="namedview8"
     pagecolor="#ffffff"
     bordercolor="#000000"
     borderopacity="0.25"
     inkscape:showpageshadow="2"
     inkscape:pageopacity="0.0"
     inkscape:pagecheckerboard="0"
     inkscape:deskcolor="#d1d1d1"
     inkscape:document-units="mm"
     showgrid="false"
     inkscape:zoom="1.1621809"
     inkscape:cx="225.86845"
     inkscape:cy="259.85628"
     inkscape:window-width="1920"
     inkscape:window-height="1030"
     inkscape:window-x="0"
     inkscape:window-y="26"
     inkscape:window-maximized="1"
     inkscape:current-layer="svg5" />
  <defs
     id="defs2" />
  <rect
     style="opacity:0.99;fill:#7591ff;fill-opacity:1;stroke-width:0.677284;-inkscape-stroke:none;stop-color:#000000"
     id="rect2372"
     width="127.56676"
     height="127.81866"
     x="-0.00056137308"
     y="0.0032864516"
     ry="0" />
  <path
     id="path2428"
     style="opacity:0.99;fill:#ffff00;fill-opacity:1;stroke:none;stroke-width:0.141319;-inkscape-stroke:none;stop-color:#000000"
     d="m 115.96713,106.95553 -6.67949,6.80602 -8.55924,-4.20504 6.80605,6.67968 -4.20488,8.55901 6.67957,-6.80612 8.55904,4.20507 -6.80612,-6.67957 z" />
  <path
     id="path2483"
     style="opacity:0.99;fill:#ffff00;fill-opacity:1;stroke:none;stroke-width:0.141319;-inkscape-stroke:none;stop-color:#000000"
     d="m 112.70076,17.943851 -8.60286,4.114403 -6.607518,-6.876292 4.114368,8.603039 -6.876078,6.607373 8.602968,-4.114476 6.60734,6.876259 -4.11448,-8.602963 z" />
  <path
     id="path2485"
     style="opacity:0.99;fill:#ffff00;fill-opacity:1;stroke:none;stroke-width:0.141319;-inkscape-stroke:none;stop-color:#000000"
     d="m 84.834139,70.218169 -8.270149,4.747851 -7.104499,-6.361513 4.747835,8.270333 -6.361314,7.104333 8.270254,-4.747933 7.104318,6.361494 -4.747942,-8.270249 z" />
  <path
     id="path2487"
     style="opacity:0.99;fill:#ffff00;fill-opacity:1;stroke:none;stroke-width:0.141319;-inkscape-stroke:none;stop-color:#000000"
     d="m 112.37753,76.643545 -3.45669,8.88757 -9.523714,-0.49156 8.887664,3.45684 -0.4915,9.52346 3.45671,-8.88769 9.52357,0.49166 -8.8877,-3.45672 z" />
  <path
     id="path2489"
     style="opacity:0.99;fill:#ffff00;fill-opacity:1;stroke:none;stroke-width:0.141319;-inkscape-stroke:none;stop-color:#000000"
     d="m 86.792887,39.883251 -2.501102,9.202282 -9.522498,0.51454 9.202401,2.501253 0.514565,9.522236 2.50112,-9.202406 9.522359,-0.514428 -9.202417,-2.501118 z" />
  <g
     id="layer1"
     transform="translate(-39.19966,-64.704668)"
     style="opacity:0.71988469">
    <path
       id="path1518"
       style="opacity:0.99;fill:#0000ff;stroke-width:0.808177;-inkscape-stroke:none;stop-color:#000000"
       d="m 55.266797,73.557784 a 15.898601,20.874104 0 0 0 -15.898657,20.874178 15.898601,20.874104 0 0 0 15.898657,20.874178 15.898601,20.874104 0 0 0 0.903682,-0.0444 c 0.0889,0.0279 0.181499,0.0444 0.277087,0.0444 h 21.087348 l -32.517977,40.67607 a 15.898601,20.874104 0 0 0 -5.648797,15.93908 15.898601,20.874104 0 0 0 15.898657,20.87418 15.898601,20.874104 0 0 0 0.903682,-0.0444 c 0.0889,0.0279 0.181499,0.0444 0.277087,0.0444 H 111.4399 c 0.0955,0 0.18783,-0.0166 0.2767,-0.0444 a 15.898601,20.874104 0 0 0 0.90406,0.0444 15.898601,20.874104 0 0 0 15.89866,-20.87418 15.898601,20.874104 0 0 0 -15.89866,-20.87418 15.898601,20.874104 0 0 0 -0.90406,0.0444 c -0.0889,-0.0279 -0.18116,-0.0444 -0.2767,-0.0444 H 91.440824 l 33.362226,-43.03045 -0.0716,-0.0832 a 15.898601,20.874104 0 0 0 3.7879,-13.501498 15.898601,20.874104 0 0 0 -15.89866,-20.874178 15.898601,20.874104 0 0 0 -0.90406,0.04444 c -0.0889,-0.02787 -0.18116,-0.04444 -0.2767,-0.04444 H 56.447566 c -0.08763,0 -0.172957,0.01365 -0.255047,0.03721 a 15.898601,20.874104 0 0 0 -0.925722,-0.03721 z" />
    <path
       id="path2594"
       style="opacity:0.99;fill:#0000ff;stroke-width:0.278305;-inkscape-stroke:none;stop-color:#000000"
       d="m 136.94827,92.487306 a 5.4748641,7.1882352 0 0 0 -5.47488,7.188261 5.4748641,7.1882352 0 0 0 5.47488,7.188263 5.4748641,7.1882352 0 0 0 0.3112,-0.0153 c 0.0306,0.01 0.0625,0.0153 0.0954,0.0153 h 7.26167 l -11.19792,14.00726 a 5.4748641,7.1882352 0 0 0 -1.94523,5.48881 5.4748641,7.1882352 0 0 0 5.47488,7.18826 5.4748641,7.1882352 0 0 0 0.3112,-0.0153 c 0.0306,0.01 0.0625,0.0153 0.0954,0.0153 h 18.93724 c 0.0329,0 0.0647,-0.006 0.0953,-0.0153 a 5.4748641,7.1882352 0 0 0 0.31132,0.0153 5.4748641,7.1882352 0 0 0 5.47488,-7.18826 5.4748641,7.1882352 0 0 0 -5.47488,-7.18826 5.4748641,7.1882352 0 0 0 -0.31132,0.0153 c -0.0306,-0.01 -0.0624,-0.0153 -0.0953,-0.0153 h -6.88691 l 11.48866,-14.81803 -0.0247,-0.0286 a 5.4748641,7.1882352 0 0 0 1.3044,-4.649392 5.4748641,7.1882352 0 0 0 -5.47488,-7.188261 5.4748641,7.1882352 0 0 0 -0.31132,0.0153 c -0.0306,-0.0096 -0.0624,-0.0153 -0.0953,-0.0153 h -18.93725 c -0.0302,0 -0.0596,0.0047 -0.0878,0.01281 a 5.4748641,7.1882352 0 0 0 -0.31879,-0.01281 z" />
    <path
       id="path2596"
       style="opacity:0.99;fill:#0000ff;stroke-width:0.157692;-inkscape-stroke:none;stop-color:#000000"
       d="m 152.64675,64.967847 a 3.1021372,4.0729581 0 0 0 -3.10215,4.072973 3.1021372,4.0729581 0 0 0 3.10215,4.072974 3.1021372,4.0729581 0 0 0 0.17633,-0.0087 c 0.0173,0.0057 0.0354,0.0087 0.0541,0.0087 h 4.11457 l -6.3449,7.936714 a 3.1021372,4.0729581 0 0 0 -1.1022,3.110039 3.1021372,4.0729581 0 0 0 3.10215,4.072972 3.1021372,4.0729581 0 0 0 0.17633,-0.0087 c 0.0173,0.0057 0.0354,0.0087 0.0541,0.0087 h 10.73012 c 0.0186,0 0.0367,-0.0034 0.054,-0.0087 a 3.1021372,4.0729581 0 0 0 0.1764,0.0087 3.1021372,4.0729581 0 0 0 3.10215,-4.072972 3.1021372,4.0729581 0 0 0 -3.10215,-4.072972 3.1021372,4.0729581 0 0 0 -0.1764,0.0087 c -0.0173,-0.0057 -0.0353,-0.0087 -0.054,-0.0087 h -3.90223 l 6.50964,-8.396108 -0.014,-0.01621 a 3.1021372,4.0729581 0 0 0 0.73909,-2.634412 3.1021372,4.0729581 0 0 0 -3.10215,-4.072973 3.1021372,4.0729581 0 0 0 -0.17639,0.0087 c -0.0173,-0.0054 -0.0354,-0.0087 -0.054,-0.0087 h -10.73012 c -0.0171,0 -0.0338,0.0027 -0.0497,0.0073 a 3.1021372,4.0729581 0 0 0 -0.18063,-0.0073 z" />
  </g>
</svg>
